<?xml version="1.0" standalone="no"?>
<!DOCTYPE svg PUBLIC "-//W3C//DTD SVG 20010904//EN"
 "http://www.w3.org/TR/2001/REC-SVG-20010904/DTD/svg10.dtd">
<svg version="1.0" xmlns="http://www.w3.org/2000/svg"
 width="500.000000pt" height="500.000000pt" viewBox="0 0 500.000000 500.000000"
 preserveAspectRatio="xMidYMid meet">

<g transform="translate(0.000000,500.000000) scale(0.100000,-0.100000)"
fill="#000000" stroke="none">
<path d="M2499 3833 c-1 -5 -3 -28 -4 -53 -4 -99 -5 -105 -14 -92 -6 10 -10 7
-15 -13 -9 -35 -37 -64 -67 -70 -26 -5 -60 -43 -56 -64 2 -15 -13 -26 -55 -41
-28 -9 -39 -32 -15 -29 6 1 51 1 98 0 l86 -1 84 -96 c46 -54 89 -102 94 -108
20 -22 251 -293 290 -341 110 -134 196 -235 200 -235 3 0 5 136 5 302 l0 302
-92 89 c-51 50 -177 173 -279 274 -173 171 -188 183 -222 183 -20 0 -38 -3
-38 -7z"/>
<path d="M1946 3223 c-13 -51 -31 -83 -47 -83 -9 0 -19 -6 -22 -14 -3 -8 -20
-17 -37 -21 -17 -4 -36 -15 -43 -26 -9 -15 -23 -19 -64 -19 -32 0 -53 -5 -56
-12 -3 -10 -9 -10 -23 -2 -28 17 -29 34 0 34 14 0 26 4 26 9 0 5 -14 8 -32 7
-26 -1 -33 4 -39 24 -4 14 -7 -69 -8 -185 -1 -115 -4 -363 -8 -549 l-6 -340
-109 -145 c-60 -80 -115 -153 -121 -161 -7 -9 -28 -38 -47 -65 l-33 -50 29 24
c16 13 172 169 347 345 l317 321 0 455 c-1 423 -6 528 -24 453z"/>
<path d="M3590 2538 c0 -16 -59 -82 -85 -95 -11 -6 -41 -13 -67 -17 -25 -4
-52 -13 -58 -21 -6 -8 -17 -12 -25 -9 -7 3 -35 -6 -62 -21 -28 -14 -96 -35
-152 -47 -87 -18 -104 -19 -112 -7 -6 10 -9 8 -10 -11 0 -23 -1 -23 -9 -5 -5
11 -9 14 -9 6 -1 -8 -7 -11 -18 -7 -14 6 -14 3 3 -16 10 -12 31 -36 45 -53
158 -183 300 -343 481 -540 20 -22 48 -53 62 -70 l26 -30 0 478 c0 262 -2 477
-5 477 -3 0 -5 -6 -5 -12z"/>
<path d="M2758 2286 c-10 -7 -18 -18 -18 -23 0 -5 -6 -10 -12 -11 -7 0 -33 -8
-58 -17 -31 -11 -68 -15 -122 -13 -43 2 -78 -1 -78 -6 0 -5 -6 -4 -13 3 -10 8
-17 7 -26 -2 -11 -10 -11 -8 -1 12 9 18 14 21 21 10 6 -11 9 -10 15 4 3 10 4
21 0 24 -3 4 -6 1 -6 -6 0 -8 -5 -9 -18 -2 -14 7 -42 -16 -157 -130 l-140
-139 -195 0 -195 0 -190 -190 -190 -190 451 0 451 0 161 163 c88 89 201 205
251 257 l90 95 1 88 c0 48 -1 87 -2 87 -2 0 -11 -7 -20 -14z"/>
<path d="M3492 1427 c-20 -21 -22 -34 -22 -126 l0 -102 -42 3 -43 3 0 45 c0
45 0 45 38 48 32 3 37 6 37 29 0 24 -2 25 -39 20 -21 -2 -50 -13 -65 -22 -22
-15 -26 -24 -26 -69 0 -71 19 -96 74 -96 23 0 47 5 54 12 9 9 12 9 12 0 0 -7
11 -12 25 -12 l25 0 0 145 c0 80 -1 145 -3 145 -2 0 -13 -10 -25 -23z"/>
<path d="M1213 1423 c-21 -14 -23 -23 -23 -120 l0 -104 -42 3 -43 3 0 45 c0
45 0 45 38 48 31 3 37 7 37 25 0 20 -4 22 -46 18 -67 -5 -84 -23 -84 -91 0
-43 4 -59 20 -73 24 -20 105 -24 114 -4 5 10 7 10 12 0 3 -7 14 -13 25 -13 17
0 19 8 19 94 0 51 3 114 6 140 7 49 2 54 -33 29z"/>
<path d="M2843 1417 c-16 -20 -18 -39 -15 -140 3 -117 3 -117 28 -117 l24 0 0
140 c0 79 -4 140 -9 140 -5 0 -18 -10 -28 -23z"/>
<path d="M3682 1407 c-12 -13 -22 -33 -22 -45 0 -13 -6 -22 -15 -22 -8 0 -15
-9 -15 -20 0 -11 7 -20 15 -20 12 0 15 -14 15 -70 0 -68 1 -70 25 -70 24 0 25
2 25 70 0 63 2 70 20 70 11 0 20 2 20 4 0 2 3 11 6 19 4 11 -2 16 -18 19 -32
4 -37 38 -6 38 13 0 31 12 41 25 l18 25 -44 0 c-33 0 -49 -6 -65 -23z"/>
<path d="M1430 1400 c0 -15 7 -20 25 -20 18 0 25 5 25 20 0 15 -7 20 -25 20
-18 0 -25 -5 -25 -20z"/>
<path d="M3560 1400 c0 -14 7 -20 23 -20 16 0 23 6 24 20 1 15 -4 20 -23 20
-17 0 -24 -5 -24 -20z"/>
<path d="M1303 1342 c-22 -3 -23 -8 -23 -93 0 -88 0 -89 25 -89 23 0 25 3 25
53 0 62 7 75 46 86 41 11 45 41 5 41 -16 0 -33 -5 -37 -12 -5 -9 -9 -8 -13 3
-3 8 -16 13 -28 11z"/>
<path d="M1521 1298 c11 -29 27 -66 35 -82 8 -16 14 -35 14 -43 0 -10 9 -13
31 -11 27 3 34 10 58 68 46 107 46 110 17 110 -21 0 -28 -8 -47 -62 l-23 -61
-17 39 c-10 21 -18 47 -18 56 -1 19 -6 23 -43 32 l-28 6 21 -52z"/>
<path d="M1745 1328 c-21 -17 -25 -28 -25 -77 0 -77 16 -91 98 -91 51 0 63 3
72 20 10 19 8 20 -55 20 -58 0 -65 2 -65 20 0 18 7 20 65 20 l65 0 0 33 c0 46
-30 72 -86 73 -30 1 -52 -5 -69 -18z m105 -37 c0 -11 -25 -21 -56 -21 -15 0
-24 6 -24 15 0 11 11 15 40 15 22 0 40 -4 40 -9z"/>
<path d="M2293 1343 c-44 -6 -56 -24 -57 -90 -2 -79 16 -95 104 -91 52 2 65 6
68 20 3 14 -7 17 -60 20 -48 2 -63 7 -63 18 0 12 15 16 68 18 l67 3 0 33 c0
21 -8 40 -23 54 -23 21 -36 23 -104 15z m77 -59 c0 -12 -9 -14 -42 -12 -59 4
-63 28 -4 28 35 0 46 -4 46 -16z"/>
<path d="M2730 1342 c-81 -3 -100 -21 -100 -93 0 -68 22 -89 93 -89 48 0 77
12 77 32 0 4 -26 8 -57 10 l-58 3 0 45 0 45 45 3 c33 2 49 9 59 23 7 12 11 22
9 22 -2 1 -32 1 -68 -1z"/>
<path d="M2995 1342 c-69 -5 -85 -22 -85 -92 0 -74 16 -90 92 -90 75 0 90 17
86 100 -4 75 -18 87 -93 82z m45 -92 l0 -50 -40 0 -40 0 0 50 0 50 40 0 40 0
0 -50z"/>
<path d="M3255 1341 c-3 -2 -5 -35 -5 -73 l0 -69 -37 3 -38 3 -3 68 c-3 64 -4
67 -27 67 -24 0 -25 -2 -25 -73 0 -59 4 -77 18 -90 22 -20 92 -23 110 -5 9 9
12 9 12 0 0 -7 9 -12 20 -12 19 0 20 7 20 93 0 87 -1 93 -20 93 -12 0 -23 -2
-25 -5z"/>
<path d="M3787 1342 c-21 -4 -18 -16 24 -111 16 -35 29 -68 29 -73 0 -4 -14
-21 -31 -36 -18 -16 -30 -35 -28 -45 4 -14 10 -13 47 11 40 25 48 36 88 137
24 60 44 110 44 112 0 10 -51 1 -54 -9 -3 -7 -12 -35 -22 -61 l-17 -48 -24 57
c-27 67 -31 72 -56 66z"/>
<path d="M1431 1250 c1 -88 1 -90 25 -90 24 0 24 1 24 90 0 89 0 90 -25 90
-25 0 -25 -1 -24 -90z"/>
<path d="M2020 1250 c0 -89 0 -90 25 -90 24 0 25 2 25 71 l0 70 43 -3 42 -3 1
-50 c1 -70 1 -71 27 -82 22 -10 22 -10 19 71 -2 44 -8 87 -14 93 -12 15 -94
17 -103 3 -3 -5 -11 -10 -16 -10 -6 0 -7 5 -4 10 4 6 -5 10 -19 10 -26 0 -26
0 -26 -90z"/>
<path d="M2440 1320 c0 -17 7 -20 52 -20 l51 0 -56 -59 c-32 -33 -57 -64 -57
-70 0 -7 31 -11 84 -11 81 0 96 6 96 36 0 2 -23 4 -52 4 l-52 0 30 33 c40 42
74 88 74 98 0 5 -38 9 -85 9 -78 0 -85 -2 -85 -20z"/>
<path d="M3560 1250 c0 -82 2 -90 19 -90 26 0 29 13 23 103 -4 67 -7 77 -23
77 -17 0 -19 -9 -19 -90z"/>
<path d="M1940 1180 c0 -13 7 -20 20 -20 13 0 20 7 20 20 0 13 -7 20 -20 20
-13 0 -20 -7 -20 -20z"/>
</g>
</svg>
